<svg width="155" height="40" viewBox="0 0 155 40" fill="none" xmlns="http://www.w3.org/2000/svg">
<path d="M53.7216 29V11.5455H65.0739V14.196H56.8835V18.9347H64.4858V21.5852H56.8835V26.3494H65.142V29H53.7216ZM73.0213 29.2301C71.9929 29.2301 71.0724 28.9659 70.2599 28.4375C69.4474 27.9091 68.8054 27.142 68.3338 26.1364C67.8622 25.1307 67.6264 23.9091 67.6264 22.4716C67.6264 21.017 67.8651 19.7898 68.3423 18.7898C68.8253 17.7841 69.4759 17.0256 70.294 16.5142C71.1122 15.9972 72.0241 15.7386 73.0298 15.7386C73.7969 15.7386 74.4276 15.8693 74.9219 16.1307C75.4162 16.3864 75.8082 16.696 76.098 17.0597C76.3878 17.4176 76.6122 17.7557 76.7713 18.0739H76.8991V11.5455H79.9929V29H76.9588V26.9375H76.7713C76.6122 27.2557 76.3821 27.5937 76.081 27.9517C75.7798 28.304 75.3821 28.6051 74.8878 28.8551C74.3935 29.1051 73.7713 29.2301 73.0213 29.2301ZM73.8821 26.6989C74.5355 26.6989 75.0923 26.5227 75.5526 26.1705C76.0128 25.8125 76.3622 25.3153 76.6009 24.679C76.8395 24.0426 76.9588 23.3011 76.9588 22.4545C76.9588 21.608 76.8395 20.8722 76.6009 20.2472C76.3679 19.6222 76.0213 19.1364 75.5611 18.7898C75.1065 18.4432 74.5469 18.2699 73.8821 18.2699C73.1946 18.2699 72.6207 18.4489 72.1605 18.8068C71.7003 19.1648 71.3537 19.6591 71.1207 20.2898C70.8878 20.9205 70.7713 21.642 70.7713 22.4545C70.7713 23.2727 70.8878 24.0028 71.1207 24.6449C71.3594 25.2812 71.7088 25.7841 72.169 26.1534C72.6349 26.517 73.206 26.6989 73.8821 26.6989ZM91.6243 23.4943V15.9091H94.7095V29H91.718V26.6733H91.5817C91.2862 27.4062 90.8004 28.0057 90.1243 28.4716C89.4538 28.9375 88.6271 29.1705 87.6442 29.1705C86.7862 29.1705 86.0277 28.9801 85.3686 28.5994C84.7152 28.2131 84.2038 27.6534 83.8345 26.9205C83.4652 26.1818 83.2805 25.2898 83.2805 24.2443V15.9091H86.3658V23.767C86.3658 24.5966 86.593 25.2557 87.0476 25.7443C87.5021 26.233 88.0987 26.4773 88.8374 26.4773C89.2919 26.4773 89.7322 26.3665 90.1584 26.1449C90.5845 25.9233 90.9339 25.5938 91.2067 25.1562C91.4851 24.7131 91.6243 24.1591 91.6243 23.4943ZM103.592 29.2557C102.286 29.2557 101.163 28.9688 100.226 28.3949C99.294 27.821 98.5753 27.0284 98.0696 26.017C97.5696 25 97.3196 23.8295 97.3196 22.5057C97.3196 21.1761 97.5753 20.0028 98.0866 18.9858C98.598 17.9631 99.3196 17.1676 100.251 16.5994C101.189 16.0256 102.297 15.7386 103.575 15.7386C104.638 15.7386 105.578 15.9347 106.396 16.3267C107.22 16.7131 107.876 17.2614 108.365 17.9716C108.854 18.6761 109.132 19.5 109.2 20.4432H106.251C106.132 19.8125 105.848 19.2869 105.399 18.8665C104.956 18.4403 104.362 18.2273 103.618 18.2273C102.987 18.2273 102.433 18.3977 101.956 18.7386C101.479 19.0739 101.107 19.5568 100.839 20.1875C100.578 20.8182 100.447 21.5739 100.447 22.4545C100.447 23.3466 100.578 24.1136 100.839 24.7557C101.101 25.392 101.467 25.8835 101.939 26.2301C102.416 26.571 102.976 26.7415 103.618 26.7415C104.072 26.7415 104.479 26.6562 104.837 26.4858C105.2 26.3097 105.504 26.0568 105.749 25.7273C105.993 25.3977 106.161 24.9972 106.251 24.5256H109.2C109.126 25.4517 108.854 26.2727 108.382 26.9886C107.911 27.6989 107.268 28.2557 106.456 28.6591C105.643 29.0568 104.689 29.2557 103.592 29.2557ZM115.501 29.2642C114.671 29.2642 113.924 29.1165 113.259 28.821C112.6 28.5199 112.077 28.0767 111.691 27.4915C111.31 26.9062 111.12 26.1847 111.12 25.3267C111.12 24.5881 111.256 23.9773 111.529 23.4943C111.802 23.0114 112.174 22.625 112.646 22.3352C113.117 22.0455 113.648 21.8267 114.239 21.679C114.836 21.5256 115.452 21.4148 116.089 21.3466C116.856 21.267 117.478 21.196 117.955 21.1335C118.433 21.0653 118.779 20.9631 118.995 20.8267C119.217 20.6847 119.327 20.4659 119.327 20.1705V20.1193C119.327 19.4773 119.137 18.9801 118.756 18.6278C118.376 18.2756 117.827 18.0994 117.112 18.0994C116.356 18.0994 115.756 18.2642 115.313 18.5938C114.876 18.9233 114.58 19.3125 114.427 19.7614L111.546 19.3523C111.773 18.5568 112.148 17.892 112.671 17.358C113.194 16.8182 113.833 16.4148 114.589 16.1477C115.344 15.875 116.18 15.7386 117.094 15.7386C117.725 15.7386 118.353 15.8125 118.978 15.9602C119.603 16.108 120.174 16.3523 120.691 16.6932C121.208 17.0284 121.623 17.4858 121.935 18.0653C122.254 18.6449 122.413 19.3693 122.413 20.2386V29H119.447V27.2017H119.344C119.157 27.5653 118.893 27.9062 118.552 28.2244C118.217 28.5369 117.793 28.7898 117.282 28.983C116.776 29.1705 116.183 29.2642 115.501 29.2642ZM116.302 26.9972C116.921 26.9972 117.458 26.875 117.913 26.6307C118.367 26.3807 118.717 26.0511 118.961 25.642C119.211 25.233 119.336 24.7869 119.336 24.304V22.7614C119.239 22.8409 119.075 22.9148 118.842 22.983C118.614 23.0511 118.359 23.1108 118.075 23.1619C117.79 23.2131 117.509 23.2585 117.231 23.2983C116.952 23.3381 116.711 23.3722 116.506 23.4006C116.046 23.4631 115.634 23.5653 115.271 23.7074C114.907 23.8494 114.62 24.0483 114.41 24.304C114.2 24.554 114.094 24.8778 114.094 25.2756C114.094 25.8438 114.302 26.2727 114.717 26.5625C115.131 26.8523 115.66 26.9972 116.302 26.9972ZM125.515 29V15.9091H128.506V18.0909H128.643C128.881 17.3352 129.29 16.7528 129.87 16.3438C130.455 15.929 131.123 15.7216 131.873 15.7216C132.043 15.7216 132.234 15.7301 132.444 15.7472C132.66 15.7585 132.839 15.7784 132.981 15.8068V18.6449C132.85 18.5994 132.643 18.5597 132.359 18.5256C132.08 18.4858 131.81 18.4659 131.549 18.4659C130.987 18.4659 130.481 18.5881 130.032 18.8324C129.589 19.071 129.239 19.4034 128.984 19.8295C128.728 20.2557 128.6 20.7472 128.6 21.304V29H125.515ZM140.287 29.2557C138.974 29.2557 137.841 28.983 136.886 28.4375C135.938 27.8864 135.207 27.108 134.696 26.1023C134.185 25.0909 133.929 23.9006 133.929 22.5312C133.929 21.1847 134.185 20.0028 134.696 18.9858C135.213 17.9631 135.935 17.1676 136.861 16.5994C137.787 16.0256 138.875 15.7386 140.125 15.7386C140.932 15.7386 141.693 15.8693 142.409 16.1307C143.131 16.3864 143.767 16.7841 144.318 17.3239C144.875 17.8636 145.313 18.5511 145.631 19.3864C145.949 20.2159 146.108 21.2045 146.108 22.3523V23.2983H135.378V21.2188H143.151C143.145 20.6278 143.017 20.1023 142.767 19.642C142.517 19.1761 142.168 18.8097 141.719 18.5426C141.276 18.2756 140.759 18.142 140.168 18.142C139.537 18.142 138.983 18.2955 138.506 18.6023C138.028 18.9034 137.656 19.3011 137.389 19.7955C137.128 20.2841 136.994 20.821 136.989 21.4062V23.2216C136.989 23.983 137.128 24.6364 137.406 25.1818C137.685 25.7216 138.074 26.1364 138.574 26.4261C139.074 26.7102 139.659 26.8523 140.33 26.8523C140.778 26.8523 141.185 26.7898 141.548 26.6648C141.912 26.5341 142.227 26.3438 142.494 26.0938C142.761 25.8438 142.963 25.5341 143.099 25.1648L145.98 25.4886C145.798 26.25 145.452 26.9148 144.94 27.483C144.435 28.0455 143.787 28.483 142.997 28.7955C142.207 29.1023 141.304 29.2557 140.287 29.2557ZM150.619 29.1875C150.102 29.1875 149.658 29.0057 149.289 28.642C148.92 28.2784 148.738 27.8352 148.744 27.3125C148.738 26.8011 148.92 26.3636 149.289 26C149.658 25.6364 150.102 25.4545 150.619 25.4545C151.119 25.4545 151.553 25.6364 151.923 26C152.298 26.3636 152.488 26.8011 152.494 27.3125C152.488 27.6591 152.397 27.9744 152.221 28.2585C152.05 28.5426 151.823 28.7699 151.539 28.9403C151.261 29.1051 150.954 29.1875 150.619 29.1875Z" fill="#0D2F3F"/>
<g clip-path="url(#clip0_7_1053)">
<path d="M36.4282 32.1355V3.57031L35.3382 3.66169C30.9671 4.02302 26.6796 5.06794 22.6325 6.75879L20.7139 7.55539V36.0075L22.111 35.4268C26.2991 33.6844 30.7334 32.6063 35.2538 32.231L36.4282 32.1355Z" fill="#F26440"/>
<path d="M40.0003 7.79443H37.8574V32.7944C37.8588 33.1669 37.5732 33.478 37.2017 33.5087L35.3724 33.6587C34.8444 33.7023 34.3177 33.7563 33.7932 33.8209C33.623 33.8414 33.4538 33.8686 33.2847 33.8924C32.931 33.9394 32.5781 33.9872 32.2261 34.043C32.0211 34.0758 31.8174 34.1142 31.613 34.1501C31.2981 34.2052 30.9824 34.26 30.6682 34.3221C30.4537 34.365 30.2395 34.4131 30.0209 34.4595C29.7216 34.5229 29.4224 34.5878 29.1252 34.6586C28.9023 34.7116 28.6802 34.7678 28.4587 34.8243C28.1696 34.8958 27.8818 34.9729 27.5944 35.0531C27.3709 35.1145 27.1473 35.1793 26.9245 35.2449C26.6388 35.3293 26.3574 35.4151 26.0752 35.5051C25.8544 35.5766 25.6333 35.6481 25.4132 35.7192C25.1307 35.8144 24.8496 35.9128 24.5695 36.0143C24.3554 36.0921 24.1409 36.1702 23.9219 36.2522C23.8239 36.2895 23.7266 36.3292 23.6289 36.3673H40.0003V7.79443Z" fill="#F26440"/>
<path d="M4.6612 3.66169L3.57129 3.57031V32.1376L4.83908 32.2453C9.35672 32.623 13.7872 33.7077 17.9683 35.4596L19.2856 36.0075V7.55539L17.3691 6.75949C13.3216 5.06829 9.03341 4.02302 4.6612 3.66169Z" fill="#F26440"/>
<path d="M0 7.79443V36.3659H16.3829C16.295 36.3313 16.2071 36.2944 16.1185 36.2616C15.9141 36.1838 15.708 36.1095 15.5022 36.0345C15.2121 35.9292 14.9222 35.8267 14.63 35.7287C14.4186 35.6572 14.2065 35.5878 13.9941 35.5201C13.7043 35.4249 13.4134 35.3352 13.1222 35.2515C12.9077 35.1888 12.6936 35.1256 12.4794 35.0656C12.1858 34.9844 11.8914 34.9073 11.5963 34.8316C11.3822 34.7765 11.1677 34.7214 10.9487 34.6701C10.6494 34.5986 10.3484 34.5331 10.0478 34.4685C9.83364 34.4222 9.61914 34.3751 9.40499 34.3322C9.09354 34.2708 8.78069 34.2157 8.46784 34.1609C8.26276 34.125 8.05769 34.0894 7.85226 34.0528C7.50698 33.998 7.16064 33.9517 6.81431 33.9049C6.63923 33.8816 6.46554 33.8537 6.29081 33.8338C5.76695 33.7703 5.24309 33.7162 4.71924 33.6716L2.79646 33.5087C2.42571 33.477 2.14146 33.1662 2.14286 32.7944V7.79443H0Z" fill="#F26440"/>
</g>
<defs>
<clipPath id="clip0_7_1053">
<rect width="40" height="40" fill="white"/>
</clipPath>
</defs>
</svg>
